<svg xmlns="http://www.w3.org/2000/svg" viewBox="0 0 139.11 93.62"><defs><style>.cls-1{fill:#1d1d1b;}</style></defs><g id="Ebene_2" data-name="Ebene 2"><g id="Ebene_1-2" data-name="Ebene 1"><path class="cls-1" d="M139.11,33.87l-37.85.32.45,59.33-12.4.1L.14,37.38,0,18.72,86.39,18,86.25.12,101,0l.13,17.88L139,17.57Zm-52.6.44-46.4.38q-10.9.09-21.82-.41v.59c8.15,3.87,14.16,7,20.61,10.44L86.4,76.16h.42Z"/><path class="cls-1" d="M8.1,16.88V12.25H4.74v4.63H2.22V5.74H4.74v4.51H8.1V5.74h2.52V16.88Z"/><path class="cls-1" d="M19.2,16.88l-.73-2.73H15.2l-.75,2.73H11.82L15.45,5.74h2.92l3.48,11.14ZM17.12,8.93c-.06-.25-.12-.64-.2-1.18a1.09,1.09,0,0,0,0-.22h-.06a9.83,9.83,0,0,1-.28,1.33l-1,3.6H18Z"/><path class="cls-1" d="M28.4,16.88l-.93-2.72c-.36-1-.85-1.56-1.48-1.56h-.37v4.28H23.1V5.74h3.64c2.62,0,3.94,1,3.94,3a2.92,2.92,0,0,1-2.32,3v0a2.89,2.89,0,0,1,1.67,2l1.18,3.13ZM25.62,7.54v3.24h.78a1.61,1.61,0,0,0,1.21-.49,1.69,1.69,0,0,0,.46-1.21A1.51,1.51,0,0,0,27.65,8a1.72,1.72,0,0,0-1.25-.42Z"/><path class="cls-1" d="M32.62,16.88V5.74H36.1q5.44,0,5.45,5.43a5.91,5.91,0,0,1-1.43,4.19,5.18,5.18,0,0,1-4,1.52Zm2.52-9.29V15h1a2.37,2.37,0,0,0,2.05-1,4.75,4.75,0,0,0,.73-2.82,4.39,4.39,0,0,0-.71-2.65,2.46,2.46,0,0,0-2.09-1Z"/><path class="cls-1" d="M53.71,16.88H50.84L49.52,9.7c-.09-.49-.16-.93-.21-1.33h0c0,.25-.06.59-.14,1a2.15,2.15,0,0,0-.06.29l-1.44,7.19H44.8L42.34,5.74H45l1.35,7.13c0,.26.1.73.18,1.42h0c.09-.43.17-.9.25-1.42l1.29-7.13h2.74l1.3,7.3c.14.8.2,1.21.2,1.25h0A10.89,10.89,0,0,1,52.57,13l1.37-7.3h2.43Z"/><path class="cls-1" d="M63.79,16.88l-.73-2.73H59.79L59,16.88H56.41L60,5.74H63l3.48,11.14ZM61.72,8.93a11.32,11.32,0,0,1-.21-1.18,1.09,1.09,0,0,0,0-.22h-.06a9.83,9.83,0,0,1-.28,1.33l-1,3.6h2.47Z"/><path class="cls-1" d="M73,16.88l-.93-2.72c-.36-1-.85-1.56-1.48-1.56h-.37v4.28H67.69V5.74h3.64q3.94,0,3.94,3a2.92,2.92,0,0,1-2.32,3v0a2.89,2.89,0,0,1,1.67,2l1.18,3.13ZM70.21,7.54v3.24H71a1.61,1.61,0,0,0,1.21-.49,1.69,1.69,0,0,0,.46-1.21A1.51,1.51,0,0,0,72.24,8,1.72,1.72,0,0,0,71,7.54Z"/><path class="cls-1" d="M77.21,16.88V5.74h6V7.59H79.73v2.78H83v1.85H79.73V15h3.72v1.85Z"/><path class="cls-1" d="M108.91,43.38v4H106.1V43.42l-3.52-7.22h3.21l1.53,4a4.19,4.19,0,0,1,.18.62c0,.21.08.39.12.55h0a10.12,10.12,0,0,1,.24-1.11l1.56-4h3Z"/><path class="cls-1" d="M118.22,47.54a4.92,4.92,0,0,1-3.81-1.48,5.93,5.93,0,0,1-1.34-4.14,6.34,6.34,0,0,1,1.38-4.36A5,5,0,0,1,118.36,36a4.86,4.86,0,0,1,3.82,1.46,6.28,6.28,0,0,1,1.3,4.27A6.23,6.23,0,0,1,122.12,46,5,5,0,0,1,118.22,47.54Zm.12-9.66q-2.37,0-2.37,3.91t2.31,3.86a1.86,1.86,0,0,0,1.7-1,5.6,5.6,0,0,0,.58-2.82C120.56,39.21,119.82,37.88,118.34,37.88Z"/><path class="cls-1" d="M134.45,42.63q0,4.9-4.53,4.91t-4.55-4.8V36.2h2.8V43q0,2.67,1.77,2.67a1.41,1.41,0,0,0,1.31-.64,3.86,3.86,0,0,0,.39-2V36.2h2.81Z"/></g></g></svg>